<?xml version="1.0" encoding="utf-8"?>
<!-- Generator: Adobe Illustrator 24.3.0, SVG Export Plug-In . SVG Version: 6.00 Build 0)  -->
<svg version="1.1" id="Layer_1" xmlns="http://www.w3.org/2000/svg" xmlns:xlink="http://www.w3.org/1999/xlink" x="0px" y="0px"
	 viewBox="0 0 512 512" style="enable-background:new 0 0 512 512;" xml:space="preserve">
<style type="text/css">
	.st0{fill:#100F0D;}
	.st1{fill:#231F20;}
</style>
<g>
	<path class="st0" d="M198.55,239.79c-6.57,0-9.83,5.17-11.32,8.51c-0.83,1.86-1.07,3.34-1.74,3.34c-0.95,0-0.27-1.28-1.05-4.12
		c-1.03-3.74-4.12-7.73-10.69-7.73c-6.9,0-9.86,5.84-11.27,9.04c-0.96,2.19-0.96,2.8-1.7,2.8c-1.07,0-0.18-1.74,0.3-3.79
		c0.95-4.03,0.23-7.11,0.23-7.11h-10.95v41.17h14.94c0,0,0-17.21,0-20.48c0-4.04,1.69-9.17,4.59-9.17c3.35,0,4.02,2.57,4.02,7.33
		c0,4.32,0,22.33,0,22.33h15c0,0,0-17.31,0-20.49c0-3.6,1.47-9.17,4.61-9.17c3.39,0,3.99,3.61,3.99,7.33c0,3.72,0,22.32,0,22.32
		h14.73c0,0,0-16.31,0-24.21C212.25,246.95,208.46,239.79,198.55,239.79"/>
	<path class="st0" d="M452.18,239.79c-6.57,0-9.83,5.17-11.32,8.51c-0.83,1.86-1.07,3.34-1.74,3.34c-0.95,0-0.32-1.63-1.05-4.12
		c-1.1-3.72-3.82-7.73-10.69-7.73c-6.91,0-9.86,5.84-11.27,9.04c-0.96,2.19-0.96,2.8-1.7,2.8c-1.07,0-0.18-1.74,0.3-3.79
		c0.95-4.03,0.23-7.11,0.23-7.11H404v41.17h14.95c0,0,0-17.21,0-20.48c0-4.04,1.69-9.17,4.59-9.17c3.35,0,4.02,2.57,4.02,7.33
		c0,4.32,0,22.33,0,22.33h15c0,0,0-17.31,0-20.49c0-3.6,1.47-9.17,4.61-9.17c3.39,0,4,3.61,4,7.33c0,3.72,0,22.32,0,22.32h14.73
		c0,0,0-16.31,0-24.21C465.88,246.95,462.1,239.79,452.18,239.79"/>
	<path class="st0" d="M234.13,272.28c-3.57,0.82-5.43-0.27-5.43-2.64c0-3.24,3.36-4.55,8.15-4.55c2.11,0,4.1,0.18,4.1,0.18
		C240.95,266.66,237.93,271.4,234.13,272.28z M237.77,239.8c-11.45,0-19.66,4.21-19.66,4.21v12.37c0,0,9.07-5.22,16.43-5.22
		c5.87,0,6.6,3.17,6.33,5.8c0,0-1.69-0.45-6.86-0.45c-12.18,0-18.33,5.54-18.33,14.41c0,8.42,6.91,11.94,12.73,11.94
		c8.5,0,12.23-5.71,13.38-8.42c0.8-1.88,0.94-3.14,1.66-3.14c0.82,0,0.54,0.91,0.5,2.78c-0.07,3.28,0.09,5.75,0.6,7.84h11.26v-20.26
		C255.8,249,251.33,239.8,237.77,239.8"/>
	<rect x="280.42" y="228.27" class="st0" width="14.95" height="53.64"/>
	<path class="st0" d="M311.81,261.33c0-3.7,3.44-7.07,9.75-7.07c6.88,0,12.41,3.31,13.65,4.06V244c0,0-4.37-4.21-15.11-4.21
		c-11.33,0-20.76,6.63-20.76,20.89c0,14.26,8.56,22.17,20.73,22.17c9.5,0,15.17-5.22,15.17-5.22v-13.6c-1.79,1-6.79,4.47-13.61,4.47
		C314.41,268.51,311.81,265.18,311.81,261.33"/>
	<path class="st0" d="M365.48,239.8c-8.65,0-11.94,8.2-12.61,9.62c-0.67,1.42-0.99,2.24-1.54,2.23c-0.94-0.03-0.29-1.75,0.08-2.86
		c0.7-2.1,2.17-7.61,2.17-14.38c0-4.59-0.62-6.13-0.62-6.13h-12.9v53.64h14.94c0,0,0-17.15,0-20.48s1.33-9.17,5.1-9.17
		c3.12,0,4.1,2.31,4.1,6.96c0,4.65,0,22.69,0,22.69h14.94c0,0,0-12.55,0-21.79C379.15,249.55,377.4,239.8,365.48,239.8"/>
	<path class="st0" d="M384.01,240.79v41.12h14.94v-41.12c0,0-2.51,1.47-7.46,1.47C386.55,242.26,384.01,240.79,384.01,240.79"/>
	<path class="st0" d="M391.43,227.86c-5.05,0-9.15,2.67-9.15,5.97c0,3.3,4.1,5.97,9.15,5.97s9.15-2.67,9.15-5.97
		C400.58,230.53,396.48,227.86,391.43,227.86"/>
	<path class="st0" d="M260.64,240.79v41.12h14.94v-41.12c0,0-2.51,1.47-7.46,1.47C263.18,242.26,260.64,240.79,260.64,240.79"/>
	<path class="st0" d="M268.07,227.86c-5.05,0-9.15,2.67-9.15,5.97c0,3.3,4.1,5.97,9.15,5.97s9.15-2.67,9.15-5.97
		C277.21,230.53,273.12,227.86,268.07,227.86"/>
	<path class="st0" d="M491.47,273.06c-3.43,0-5.95-4.35-5.95-10.4c0-5.88,2.59-10.4,5.83-10.4c4.16,0,5.93,3.81,5.93,10.4
		C497.28,269.51,495.65,273.06,491.47,273.06z M495.57,239.79c-7.68,0-11.2,5.76-12.73,9.04c-1.01,2.17-0.96,2.8-1.7,2.8
		c-1.07,0-0.18-1.74,0.3-3.79c0.95-4.03,0.23-7.11,0.23-7.11h-10.95v52.54h14.94c0,0,0-8.6,0-16.66c1.77,3,5.04,6.2,10.09,6.2
		c10.8,0,16.24-9.14,16.24-21.5C512,247.32,505.49,239.79,495.57,239.79"/>
	<path class="st1" d="M97.58,252.22c1-0.12,1.97-0.12,2.85,0c0.51-1.17,0.6-3.2,0.14-5.4c-0.68-3.28-1.61-5.26-3.53-4.95
		c-1.91,0.31-1.99,2.68-1.3,5.96C96.13,249.67,96.81,251.25,97.58,252.22"/>
	<path class="st1" d="M81.14,254.81c1.37,0.6,2.21,1,2.54,0.65c0.21-0.22,0.15-0.63-0.18-1.17c-0.67-1.1-2.07-2.22-3.54-2.85
		c-3.02-1.3-6.62-0.87-9.39,1.13c-0.92,0.67-1.79,1.6-1.66,2.17c0.04,0.18,0.18,0.32,0.5,0.36c0.76,0.09,3.4-1.25,6.44-1.43
		C77.99,253.54,79.77,254.21,81.14,254.81"/>
	<path class="st1" d="M78.38,256.39c-1.78,0.28-2.77,0.87-3.4,1.42c-0.54,0.47-0.87,0.99-0.87,1.36c0,0.17,0.08,0.27,0.14,0.33
		l0.29,0.11c0.4,0,1.31-0.36,1.31-0.36c2.48-0.89,4.12-0.78,5.74-0.6c0.9,0.1,1.32,0.15,1.52-0.15c0.06-0.09,0.13-0.28-0.05-0.57
		C82.64,257.24,80.84,256.09,78.38,256.39"/>
	<path class="st1" d="M92.03,262.16c1.21,0.6,2.54,0.36,2.98-0.52c0.43-0.88-0.2-2.08-1.41-2.68c-1.21-0.6-2.54-0.36-2.98,0.52
		C90.18,260.36,90.81,261.56,92.03,262.16"/>
	<path class="st1" d="M99.81,255.35c-0.98-0.02-1.8,1.07-1.82,2.41c-0.02,1.35,0.76,2.46,1.74,2.48c0.98,0.02,1.8-1.07,1.82-2.41
		C101.58,256.48,100.8,255.37,99.81,255.35"/>
	<path class="st1" d="M33.71,279.69c-0.24-0.31-0.65-0.21-1.04-0.12c-0.27,0.07-0.58,0.14-0.92,0.13c-0.72-0.02-1.34-0.32-1.68-0.85
		c-0.45-0.69-0.42-1.71,0.07-2.89c0.07-0.16,0.15-0.34,0.23-0.53c0.79-1.77,2.11-4.74,0.63-7.56c-1.12-2.13-2.94-3.45-5.13-3.73
		c-2.1-0.27-4.27,0.51-5.65,2.04c-2.18,2.4-2.52,5.67-2.1,6.83c0.15,0.42,0.4,0.54,0.57,0.56c0.37,0.05,0.92-0.22,1.26-1.14l0.1-0.3
		c0.15-0.49,0.44-1.4,0.9-2.12c0.56-0.88,1.44-1.48,2.47-1.7c1.05-0.22,2.12-0.02,3.01,0.56c1.53,1,2.11,2.87,1.46,4.65
		c-0.34,0.92-0.88,2.68-0.76,4.14c0.24,2.93,2.05,4.11,3.67,4.23c1.58,0.06,2.68-0.82,2.96-1.47
		C33.94,280.02,33.8,279.79,33.71,279.69"/>
	<path class="st1" d="M48.69,225.83c5.14-5.94,11.47-11.1,17.13-14c0.2-0.1,0.4,0.11,0.3,0.3c-0.45,0.82-1.32,2.56-1.59,3.88
		c-0.04,0.2,0.18,0.36,0.36,0.24c3.53-2.4,9.66-4.98,15.04-5.31c0.23-0.01,0.34,0.28,0.16,0.42c-0.82,0.63-1.71,1.5-2.37,2.38
		c-0.11,0.15-0.01,0.37,0.18,0.37c3.78,0.03,9.1,1.35,12.57,3.3c0.24,0.13,0.07,0.59-0.19,0.53c-5.25-1.2-13.85-2.12-22.78,0.06
		c-7.97,1.94-14.06,4.95-18.5,8.17C48.78,226.33,48.51,226.04,48.69,225.83z M74.28,283.36L74.28,283.36l0,0.01L74.28,283.36z
		 M95.48,285.86c0.15-0.06,0.26-0.24,0.24-0.41c-0.02-0.21-0.21-0.37-0.42-0.35c0,0-10.97,1.62-21.33-2.17
		c1.13-3.67,4.13-2.34,8.67-1.98c8.18,0.49,15.5-0.71,20.92-2.26c4.69-1.35,10.86-4,15.64-7.78c1.61,3.55,2.19,7.45,2.19,7.45
		s1.25-0.22,2.29,0.42c0.99,0.61,1.71,1.87,1.22,5.13c-1.01,6.1-3.6,11.05-7.96,15.6c-2.65,2.85-5.87,5.34-9.56,7.14
		c-1.96,1.03-4.04,1.92-6.24,2.64c-16.42,5.36-33.23-0.53-38.65-13.2c-0.43-0.95-0.8-1.95-1.09-2.99
		c-2.31-8.35-0.35-18.36,5.78-24.66v0c0.38-0.4,0.76-0.88,0.76-1.47c0-0.5-0.32-1.02-0.59-1.4c-2.14-3.11-9.57-8.41-8.08-18.66
		c1.07-7.37,7.52-12.56,13.52-12.25c0.51,0.02,1.02,0.06,1.52,0.09c2.6,0.15,4.88,0.49,7.02,0.58c3.59,0.16,6.81-0.37,10.63-3.55
		c1.29-1.07,2.32-2.01,4.07-2.3c0.18-0.03,0.64-0.2,1.56-0.15c0.93,0.05,1.82,0.31,2.62,0.84c3.06,2.04,3.5,6.97,3.66,10.59
		c0.09,2.06,0.34,7.05,0.42,8.48c0.2,3.27,1.06,3.74,2.8,4.31c0.98,0.32,1.89,0.56,3.23,0.94c4.05,1.14,6.46,2.29,7.97,3.78
		c0.9,0.93,1.33,1.91,1.46,2.85c0.48,3.49-2.71,7.8-11.14,11.71c-9.22,4.28-20.4,5.36-28.13,4.5c-0.59-0.07-2.7-0.31-2.71-0.31
		c-6.18-0.83-9.71,7.15-6,12.63c2.39,3.53,8.9,5.82,15.42,5.82c14.94,0,26.42-6.38,30.69-11.89c0.13-0.17,0.14-0.18,0.34-0.49
		c0.21-0.32,0.04-0.49-0.23-0.31c-3.49,2.39-18.99,11.87-35.57,9.01c0,0-2.01-0.33-3.85-1.05c-1.46-0.57-4.52-1.98-4.89-5.11
		C87.05,289.78,95.48,285.86,95.48,285.86z M21.99,254.07c-4.65,0.9-8.75,3.54-11.26,7.19c-1.5-1.25-4.29-3.67-4.78-4.61
		c-4-7.6,4.37-22.38,10.22-30.73c14.46-20.63,37.1-36.24,47.58-33.41c1.71,0.48,7.35,7.02,7.35,7.02s-10.48,5.81-20.19,13.92
		C37.8,223.52,27.92,238.17,21.99,254.07z M29.81,288.95c-0.7,0.12-1.42,0.17-2.15,0.15c-7-0.19-14.56-6.49-15.31-13.97
		c-0.83-8.26,3.39-14.62,10.86-16.13c0.9-0.18,1.97-0.28,3.14-0.22c4.19,0.23,10.36,3.44,11.77,12.57
		C39.37,279.44,37.39,287.66,29.81,288.95z M124.65,274.32c-0.06-0.21-0.45-1.64-0.99-3.36c-0.54-1.72-1.09-2.93-1.09-2.93
		c2.15-3.22,2.19-6.11,1.91-7.74c-0.31-2.02-1.15-3.75-2.85-5.53c-1.7-1.78-5.17-3.61-10.05-4.98c-0.56-0.16-2.4-0.66-2.56-0.71
		c-0.01-0.1-0.14-6.04-0.25-8.59c-0.08-1.84-0.24-4.72-1.13-7.55c-1.06-3.83-2.92-7.19-5.23-9.33c6.38-6.61,10.36-13.9,10.35-20.14
		c-0.02-12.02-14.78-15.65-32.96-8.12l-3.85,1.64l-7.07-6.93c-20.74-18.09-85.56,53.97-64.84,71.47l4.53,3.84
		c-1.18,3.04-1.64,6.53-1.26,10.28c0.48,4.82,2.97,9.43,7,13c3.82,3.39,8.85,5.53,13.73,5.53c8.07,18.59,26.5,29.99,48.1,30.63
		c23.18,0.69,42.64-10.19,50.79-29.73c0.53-1.37,2.8-7.55,2.8-13C129.72,276.6,126.62,274.32,124.65,274.32"/>
</g>
</svg>
