<?xml version="1.0" encoding="utf-8"?>
<!-- Generator: Adobe Illustrator 24.3.0, SVG Export Plug-In . SVG Version: 6.00 Build 0)  -->
<svg version="1.1" id="Layer_1" xmlns="http://www.w3.org/2000/svg" xmlns:xlink="http://www.w3.org/1999/xlink" x="0px" y="0px"
	 viewBox="0 0 512 512" style="enable-background:new 0 0 512 512;" xml:space="preserve">
<style type="text/css">
	.st0{fill:#0A151B;}
</style>
<g>
	<path class="st0" d="M467.02,228.83h13.57v46.77H512v11.68h-44.98V228.83z M435.13,228.83l25.25,58.45H446.1l-5.14-12.15h-27.55
		l-5.21,12.15h-13.96l25.41-58.45H435.13z M418.25,263.93h17.92l-8.92-20.9L418.25,263.93z M389.29,228.83v11.68H353.7v11.2h31.01
		v11.44H353.7v12.47h35.59v11.68h-49v-58.45h49V228.83z M293.96,287.28l-25.17-58.45h14.76l18.07,42.75l18.15-42.75h14.28
		l-25.25,58.45H293.96z M264.45,228.83v11.68h-35.67v11.2h31.01v11.44h-31.01v12.47h35.59v11.68h-48.93v-58.45h49.02V228.83z
		 M164.93,287.28h-13.57v-58.45h30.93c13.66,0,22.49,6.62,22.49,18.77c0,8.75-4.73,14.83-12.78,17.44l14.37,22.17h-15.55
		l-13.02-20.67h-12.86V287.28z M181.58,255.41c6.47,0,9.87-2.84,9.87-7.57c0-4.81-3.47-7.57-9.87-7.57h-16.58v15.14H181.58z"/>
	<path class="st0" d="M47.63,206.89v11.05c-15.6,1.48-27.77,14.65-27.77,30.58c0,14.01,9.4,25.81,22.32,29.52L8.75,299.06v-50.65
		C8.76,226.42,25.85,208.37,47.63,206.89z M47.63,305.21H10.25l37.39-23.68V305.21z M53.72,281.64l37.39,23.68H53.72V281.64z
		 M47.63,272.82c-12.17-1.48-21.69-11.9-21.69-24.43s9.51-22.93,21.69-24.43V272.82z M53.72,223.98
		c12.17,1.48,21.69,11.9,21.69,24.43c0,12.53-9.51,22.93-21.69,24.43V223.98z M92.6,248.4v50.65l-33.43-21.13
		c12.82-3.72,22.32-15.5,22.32-29.52c0-15.93-12.17-28.99-27.77-30.58v-10.93C75.41,208.37,92.6,226.42,92.6,248.4z M50.63,198.07
		C22.75,198.07,0,220.69,0,248.41v65.52h101.37v-65.52C101.35,220.69,78.62,198.07,50.63,198.07z"/>
</g>
</svg>
