<?xml version="1.0" encoding="utf-8"?>
<!-- Generator: Adobe Illustrator 24.3.0, SVG Export Plug-In . SVG Version: 6.00 Build 0)  -->
<svg version="1.1" id="Layer_1" xmlns="http://www.w3.org/2000/svg" xmlns:xlink="http://www.w3.org/1999/xlink" x="0px" y="0px"
	 viewBox="0 0 512 512" style="enable-background:new 0 0 512 512;" xml:space="preserve">
<style type="text/css">
	.st0{fill:#010202;}
</style>
<g>
	<path class="st0" d="M29.46,294.07c2.16,5.74,5.16,10.65,8.99,14.73c3.83,4.08,8.36,7.2,13.6,9.36c5.24,2.16,10.94,3.25,17.1,3.25
		c5.99,0,11.61-1.12,16.85-3.37c5.24-2.25,9.82-5.41,13.73-9.49c3.91-4.08,6.95-8.95,9.11-14.6c2.16-5.66,3.25-11.98,3.25-18.97
		V167.13h26.21v174.75h-25.96v-16.23c-5.82,6.16-12.69,10.9-20.6,14.23c-7.91,3.33-16.43,4.99-25.59,4.99
		c-9.32,0-18.02-1.62-26.09-4.87C32,336.76,25,332.14,19.1,326.15c-5.91-5.99-10.57-13.19-13.98-21.59
		C1.71,296.15,0,286.79,0,276.47V167.13h26.21v107.84C26.21,281.96,27.29,288.33,29.46,294.07z"/>
	<path class="st0" d="M183.48,167.13v63.66c5.82-5.82,12.57-10.44,20.22-13.85c7.66-3.41,15.98-5.12,24.96-5.12
		c9.32,0,18.06,1.75,26.21,5.24c8.15,3.49,15.23,8.24,21.22,14.23c5.99,5.99,10.73,13.06,14.23,21.22
		c3.49,8.16,5.24,16.81,5.24,25.96c0,9.15-1.75,17.77-5.24,25.84c-3.49,8.07-8.24,15.1-14.23,21.09
		c-5.99,5.99-13.06,10.73-21.22,14.23c-8.16,3.49-16.89,5.24-26.21,5.24c-8.99,0-17.35-1.71-25.09-5.12
		c-7.74-3.41-14.52-8.03-20.35-13.85v15.98h-24.96V167.13H183.48z M186.35,295.69c2.25,5.33,5.37,9.99,9.36,13.98
		c3.99,3.99,8.65,7.16,13.98,9.49s11.07,3.49,17.23,3.49c5.99,0,11.65-1.17,16.98-3.49c5.33-2.33,9.94-5.49,13.86-9.49
		c3.91-3.99,7.03-8.65,9.36-13.98c2.33-5.33,3.49-11.07,3.49-17.22c0-6.16-1.17-11.94-3.49-17.35c-2.33-5.41-5.45-10.11-9.36-14.1
		c-3.91-3.99-8.53-7.11-13.86-9.36c-5.33-2.25-10.98-3.37-16.98-3.37s-11.65,1.12-16.98,3.37c-5.33,2.25-9.98,5.37-13.98,9.36
		c-3.99,3.99-7.16,8.7-9.49,14.1c-2.33,5.41-3.49,11.19-3.49,17.35C182.98,284.63,184.11,290.37,186.35,295.69z"/>
	<path class="st0" d="M309.8,252.76c3.33-7.99,7.91-15.02,13.73-21.09c5.82-6.07,12.73-10.86,20.72-14.35
		c7.99-3.49,16.64-5.24,25.96-5.24c9.15,0,17.64,1.66,25.46,4.99c7.82,3.33,14.56,7.95,20.22,13.86
		c5.66,5.91,10.07,12.9,13.23,20.97c3.16,8.07,4.74,16.85,4.74,26.34v8.24h-103.6c0.83,5.16,2.5,9.94,4.99,14.35
		c2.5,4.41,5.62,8.24,9.36,11.48c3.74,3.25,7.99,5.78,12.73,7.61c4.74,1.83,9.78,2.75,15.1,2.75c15.15,0,27.38-6.24,36.7-18.72
		l18.22,13.48c-6.32,8.49-14.15,15.15-23.47,19.97c-9.32,4.83-19.8,7.24-31.45,7.24c-9.49,0-18.35-1.66-26.59-4.99
		c-8.24-3.33-15.39-7.99-21.47-13.98c-6.07-5.99-10.86-13.02-14.35-21.09c-3.49-8.07-5.24-16.85-5.24-26.34
		C304.8,269.23,306.47,260.74,309.8,252.76z M344.87,242.89c-7.07,5.91-11.77,13.77-14.1,23.59h77.64
		c-2.16-9.82-6.78-17.68-13.86-23.59c-7.07-5.91-15.35-8.86-24.84-8.86C360.22,234.03,351.94,236.99,344.87,242.89z"/>
	<path class="st0" d="M481.05,245.76c-5.33,5.82-7.99,13.73-7.99,23.72v72.4h-25.21V214.56h24.96v15.73
		c3.16-5.16,7.28-9.24,12.36-12.23c5.08-3,11.11-4.49,18.1-4.49H512v23.47h-10.48C493.19,237.03,486.37,239.94,481.05,245.76z"/>
</g>
</svg>
